<svg width="242" height="93" viewBox="0 0 242 93" fill="none" xmlns="http://www.w3.org/2000/svg">
<path d="M6.32955 33.0341V30.1364L19.1136 9.90909H21.2159V14.3977H19.7955L10.1364 29.6818V29.9091H27.3523V33.0341H6.32955ZM20.0227 39V32.1534V30.804V9.90909H23.375V39H20.0227ZM33.1868 39V9.90909H36.7095V24.3409H37.0504L50.1186 9.90909H54.7209L42.505 23.0341L54.7209 39H50.4595L40.3459 25.4773L36.7095 29.5682V39H33.1868ZM66.3722 39.4545C64.2699 39.4545 62.4564 38.9905 60.9318 38.0625C59.4167 37.125 58.2472 35.8182 57.4233 34.142C56.6089 32.4564 56.2017 30.4962 56.2017 28.2614C56.2017 26.0265 56.6089 24.0568 57.4233 22.3523C58.2472 20.6383 59.393 19.303 60.8608 18.3466C62.3381 17.3807 64.0616 16.8977 66.0312 16.8977C67.1676 16.8977 68.2898 17.0871 69.3977 17.4659C70.5057 17.8447 71.5142 18.4602 72.4233 19.3125C73.3324 20.1553 74.0568 21.2727 74.5966 22.6648C75.1364 24.0568 75.4062 25.7708 75.4062 27.8068V29.2273H58.5881V26.3295H71.9972C71.9972 25.0985 71.7509 24 71.2585 23.0341C70.7756 22.0682 70.0843 21.3059 69.1847 20.7472C68.2945 20.1884 67.2434 19.9091 66.0312 19.9091C64.696 19.9091 63.5407 20.2405 62.5653 20.9034C61.5994 21.5568 60.8561 22.4091 60.3352 23.4602C59.8144 24.5114 59.554 25.6383 59.554 26.8409V28.7727C59.554 30.4205 59.8381 31.8172 60.4062 32.9631C60.9839 34.0994 61.7841 34.9659 62.8068 35.5625C63.8295 36.1496 65.018 36.4432 66.3722 36.4432C67.2528 36.4432 68.0483 36.3201 68.7585 36.0739C69.4782 35.8182 70.0985 35.4394 70.6193 34.9375C71.1402 34.4261 71.5426 33.7917 71.8267 33.0341L75.0653 33.9432C74.7244 35.0417 74.1515 36.0076 73.3466 36.8409C72.5417 37.6648 71.5473 38.3087 70.3636 38.7727C69.1799 39.2273 67.8494 39.4545 66.3722 39.4545ZM82.0007 47.1818C81.4325 47.1818 80.9259 47.1345 80.4808 47.0398C80.0357 46.9545 79.728 46.8693 79.5575 46.7841L80.4098 43.8295C81.2242 44.0379 81.9439 44.1136 82.5689 44.0568C83.1939 44 83.7479 43.7206 84.2308 43.2188C84.7232 42.7263 85.1731 41.9261 85.5803 40.8182L86.2053 39.1136L78.1371 17.1818H81.7734L87.7962 34.5682H88.0234L94.0462 17.1818H97.6825L88.4212 42.1818C88.0045 43.3087 87.4884 44.2415 86.8729 44.9801C86.2573 45.7282 85.5424 46.2822 84.728 46.642C83.9231 47.0019 83.014 47.1818 82.0007 47.1818Z" fill="black"/>
<g style="mix-blend-mode:darken">
<path d="M10.9961 83H5.05859L5.09766 79.9336H10.9961C13.0273 79.9336 14.7201 79.5104 16.0742 78.6641C17.4284 77.8047 18.444 76.6068 19.1211 75.0703C19.8112 73.5208 20.1562 71.7109 20.1562 69.6406V67.9023C20.1562 66.2747 19.9609 64.8294 19.5703 63.5664C19.1797 62.2904 18.6068 61.2161 17.8516 60.3438C17.0964 59.4583 16.1719 58.7878 15.0781 58.332C13.9974 57.8763 12.7539 57.6484 11.3477 57.6484H4.94141V54.5625H11.3477C13.2096 54.5625 14.9089 54.875 16.4453 55.5C17.9818 56.112 19.3034 57.0039 20.4102 58.1758C21.5299 59.3346 22.3893 60.7409 22.9883 62.3945C23.5872 64.0352 23.8867 65.8841 23.8867 67.9414V69.6406C23.8867 71.6979 23.5872 73.5534 22.9883 75.207C22.3893 76.8477 21.5234 78.2474 20.3906 79.4062C19.2708 80.5651 17.9167 81.457 16.3281 82.082C14.7526 82.694 12.9753 83 10.9961 83ZM7.07031 54.5625V83H3.30078V54.5625H7.07031ZM37.7734 83.3906C36.3021 83.3906 34.9674 83.1432 33.7695 82.6484C32.5846 82.1406 31.5625 81.431 30.7031 80.5195C29.8568 79.6081 29.2057 78.5273 28.75 77.2773C28.2943 76.0273 28.0664 74.6602 28.0664 73.1758V72.3555C28.0664 70.6367 28.3203 69.1068 28.8281 67.7656C29.3359 66.4115 30.026 65.2656 30.8984 64.3281C31.7708 63.3906 32.7604 62.681 33.8672 62.1992C34.974 61.7174 36.1198 61.4766 37.3047 61.4766C38.8151 61.4766 40.1172 61.737 41.2109 62.2578C42.3177 62.7786 43.2227 63.5078 43.9258 64.4453C44.6289 65.3698 45.1497 66.4635 45.4883 67.7266C45.8268 68.9766 45.9961 70.3438 45.9961 71.8281V73.4492H30.2148V70.5H42.3828V70.2266C42.3307 69.2891 42.1354 68.3776 41.7969 67.4922C41.4714 66.6068 40.9505 65.8776 40.2344 65.3047C39.5182 64.7318 38.5417 64.4453 37.3047 64.4453C36.4844 64.4453 35.7292 64.6211 35.0391 64.9727C34.349 65.3112 33.7565 65.819 33.2617 66.4961C32.7669 67.1732 32.3828 68 32.1094 68.9766C31.8359 69.9531 31.6992 71.0794 31.6992 72.3555V73.1758C31.6992 74.1784 31.8359 75.1224 32.1094 76.0078C32.3958 76.8802 32.806 77.6484 33.3398 78.3125C33.8867 78.9766 34.5443 79.4974 35.3125 79.875C36.0938 80.2526 36.9792 80.4414 37.9688 80.4414C39.2448 80.4414 40.3255 80.181 41.2109 79.6602C42.0964 79.1393 42.8711 78.4427 43.5352 77.5703L45.7227 79.3086C45.2669 79.9987 44.6875 80.6562 43.9844 81.2812C43.2812 81.9062 42.4154 82.4141 41.3867 82.8047C40.3711 83.1953 39.1667 83.3906 37.7734 83.3906ZM56.3672 79.7383L62.1484 61.8672H65.8398L58.2422 83H55.8203L56.3672 79.7383ZM51.543 61.8672L57.5 79.8359L57.9102 83H55.4883L47.832 61.8672H51.543Z" fill="white"/>
<path d="M78.0859 83.3906C76.6146 83.3906 75.2799 83.1432 74.082 82.6484C72.8971 82.1406 71.875 81.431 71.0156 80.5195C70.1693 79.6081 69.5182 78.5273 69.0625 77.2773C68.6068 76.0273 68.3789 74.6602 68.3789 73.1758V72.3555C68.3789 70.6367 68.6328 69.1068 69.1406 67.7656C69.6484 66.4115 70.3385 65.2656 71.2109 64.3281C72.0833 63.3906 73.0729 62.681 74.1797 62.1992C75.2865 61.7174 76.4323 61.4766 77.6172 61.4766C79.1276 61.4766 80.4297 61.737 81.5234 62.2578C82.6302 62.7786 83.5352 63.5078 84.2383 64.4453C84.9414 65.3698 85.4622 66.4635 85.8008 67.7266C86.1393 68.9766 86.3086 70.3438 86.3086 71.8281V73.4492H70.5273V70.5H82.6953V70.2266C82.6432 69.2891 82.4479 68.3776 82.1094 67.4922C81.7839 66.6068 81.263 65.8776 80.5469 65.3047C79.8307 64.7318 78.8542 64.4453 77.6172 64.4453C76.7969 64.4453 76.0417 64.6211 75.3516 64.9727C74.6615 65.3112 74.069 65.819 73.5742 66.4961C73.0794 67.1732 72.6953 68 72.4219 68.9766C72.1484 69.9531 72.0117 71.0794 72.0117 72.3555V73.1758C72.0117 74.1784 72.1484 75.1224 72.4219 76.0078C72.7083 76.8802 73.1185 77.6484 73.6523 78.3125C74.1992 78.9766 74.8568 79.4974 75.625 79.875C76.4062 80.2526 77.2917 80.4414 78.2812 80.4414C79.5573 80.4414 80.638 80.181 81.5234 79.6602C82.4089 79.1393 83.1836 78.4427 83.8477 77.5703L86.0352 79.3086C85.5794 79.9987 85 80.6562 84.2969 81.2812C83.5938 81.9062 82.7279 82.4141 81.6992 82.8047C80.6836 83.1953 79.4792 83.3906 78.0859 83.3906ZM94.4531 53V83H90.8203V53H94.4531ZM99.2969 72.668V72.2188C99.2969 70.6953 99.5182 69.2826 99.9609 67.9805C100.404 66.6654 101.042 65.526 101.875 64.5625C102.708 63.5859 103.717 62.8307 104.902 62.2969C106.087 61.75 107.415 61.4766 108.887 61.4766C110.371 61.4766 111.706 61.75 112.891 62.2969C114.089 62.8307 115.104 63.5859 115.938 64.5625C116.784 65.526 117.428 66.6654 117.871 67.9805C118.314 69.2826 118.535 70.6953 118.535 72.2188V72.668C118.535 74.1914 118.314 75.6042 117.871 76.9062C117.428 78.2083 116.784 79.3477 115.938 80.3242C115.104 81.2878 114.095 82.043 112.91 82.5898C111.738 83.1237 110.41 83.3906 108.926 83.3906C107.441 83.3906 106.107 83.1237 104.922 82.5898C103.737 82.043 102.721 81.2878 101.875 80.3242C101.042 79.3477 100.404 78.2083 99.9609 76.9062C99.5182 75.6042 99.2969 74.1914 99.2969 72.668ZM102.91 72.2188V72.668C102.91 73.7227 103.034 74.7188 103.281 75.6562C103.529 76.5807 103.9 77.401 104.395 78.1172C104.902 78.8333 105.534 79.3997 106.289 79.8164C107.044 80.2201 107.923 80.4219 108.926 80.4219C109.915 80.4219 110.781 80.2201 111.523 79.8164C112.279 79.3997 112.904 78.8333 113.398 78.1172C113.893 77.401 114.264 76.5807 114.512 75.6562C114.772 74.7188 114.902 73.7227 114.902 72.668V72.2188C114.902 71.1771 114.772 70.194 114.512 69.2695C114.264 68.332 113.887 67.5052 113.379 66.7891C112.884 66.0599 112.259 65.487 111.504 65.0703C110.762 64.6536 109.889 64.4453 108.887 64.4453C107.897 64.4453 107.025 64.6536 106.27 65.0703C105.527 65.487 104.902 66.0599 104.395 66.7891C103.9 67.5052 103.529 68.332 103.281 69.2695C103.034 70.194 102.91 71.1771 102.91 72.2188ZM126.68 65.9297V91.125H123.047V61.8672H126.367L126.68 65.9297ZM140.918 72.2578V72.668C140.918 74.2044 140.736 75.6302 140.371 76.9453C140.007 78.2474 139.473 79.3802 138.77 80.3438C138.079 81.3073 137.227 82.056 136.211 82.5898C135.195 83.1237 134.03 83.3906 132.715 83.3906C131.374 83.3906 130.189 83.1693 129.16 82.7266C128.132 82.2839 127.259 81.6393 126.543 80.793C125.827 79.9466 125.254 78.931 124.824 77.7461C124.408 76.5612 124.121 75.2266 123.965 73.7422V71.5547C124.121 69.9922 124.414 68.5924 124.844 67.3555C125.273 66.1185 125.84 65.0638 126.543 64.1914C127.259 63.306 128.125 62.6354 129.141 62.1797C130.156 61.7109 131.328 61.4766 132.656 61.4766C133.984 61.4766 135.163 61.737 136.191 62.2578C137.22 62.7656 138.086 63.4948 138.789 64.4453C139.492 65.3958 140.02 66.5352 140.371 67.8633C140.736 69.1784 140.918 70.6432 140.918 72.2578ZM137.285 72.668V72.2578C137.285 71.2031 137.174 70.2135 136.953 69.2891C136.732 68.3516 136.387 67.5312 135.918 66.8281C135.462 66.112 134.876 65.5521 134.16 65.1484C133.444 64.7318 132.591 64.5234 131.602 64.5234C130.69 64.5234 129.896 64.6797 129.219 64.9922C128.555 65.3047 127.988 65.7279 127.52 66.2617C127.051 66.7826 126.667 67.3815 126.367 68.0586C126.081 68.7227 125.866 69.4128 125.723 70.1289V75.1875C125.983 76.099 126.348 76.9583 126.816 77.7656C127.285 78.5599 127.91 79.2044 128.691 79.6992C129.473 80.181 130.456 80.4219 131.641 80.4219C132.617 80.4219 133.457 80.2201 134.16 79.8164C134.876 79.3997 135.462 78.8333 135.918 78.1172C136.387 77.401 136.732 76.5807 136.953 75.6562C137.174 74.7188 137.285 73.7227 137.285 72.668ZM149.121 66.0664V83H145.488V61.8672H148.926L149.121 66.0664ZM148.379 71.6328L146.699 71.5742C146.712 70.1289 146.901 68.7943 147.266 67.5703C147.63 66.3333 148.171 65.2591 148.887 64.3477C149.603 63.4362 150.495 62.7331 151.562 62.2383C152.63 61.7305 153.867 61.4766 155.273 61.4766C156.263 61.4766 157.174 61.6198 158.008 61.9062C158.841 62.1797 159.564 62.6159 160.176 63.2148C160.788 63.8138 161.263 64.582 161.602 65.5195C161.94 66.457 162.109 67.5898 162.109 68.918V83H158.496V69.0938C158.496 67.987 158.307 67.1016 157.93 66.4375C157.565 65.7734 157.044 65.2917 156.367 64.9922C155.69 64.6797 154.896 64.5234 153.984 64.5234C152.917 64.5234 152.025 64.7122 151.309 65.0898C150.592 65.4674 150.02 65.9883 149.59 66.6523C149.16 67.3164 148.848 68.0781 148.652 68.9375C148.47 69.7839 148.379 70.6823 148.379 71.6328ZM162.07 69.6406L159.648 70.3828C159.661 69.224 159.85 68.1107 160.215 67.043C160.592 65.9753 161.133 65.0247 161.836 64.1914C162.552 63.3581 163.431 62.7005 164.473 62.2188C165.514 61.724 166.706 61.4766 168.047 61.4766C169.18 61.4766 170.182 61.6263 171.055 61.9258C171.94 62.2253 172.682 62.6875 173.281 63.3125C173.893 63.9245 174.355 64.7122 174.668 65.6758C174.98 66.6393 175.137 67.7852 175.137 69.1133V83H171.504V69.0742C171.504 67.8893 171.315 66.9714 170.938 66.3203C170.573 65.6562 170.052 65.194 169.375 64.9336C168.711 64.6602 167.917 64.5234 166.992 64.5234C166.198 64.5234 165.495 64.6602 164.883 64.9336C164.271 65.207 163.757 65.5846 163.34 66.0664C162.923 66.5352 162.604 67.0755 162.383 67.6875C162.174 68.2995 162.07 68.9505 162.07 69.6406ZM189.375 83.3906C187.904 83.3906 186.569 83.1432 185.371 82.6484C184.186 82.1406 183.164 81.431 182.305 80.5195C181.458 79.6081 180.807 78.5273 180.352 77.2773C179.896 76.0273 179.668 74.6602 179.668 73.1758V72.3555C179.668 70.6367 179.922 69.1068 180.43 67.7656C180.938 66.4115 181.628 65.2656 182.5 64.3281C183.372 63.3906 184.362 62.681 185.469 62.1992C186.576 61.7174 187.721 61.4766 188.906 61.4766C190.417 61.4766 191.719 61.737 192.812 62.2578C193.919 62.7786 194.824 63.5078 195.527 64.4453C196.23 65.3698 196.751 66.4635 197.09 67.7266C197.428 68.9766 197.598 70.3438 197.598 71.8281V73.4492H181.816V70.5H193.984V70.2266C193.932 69.2891 193.737 68.3776 193.398 67.4922C193.073 66.6068 192.552 65.8776 191.836 65.3047C191.12 64.7318 190.143 64.4453 188.906 64.4453C188.086 64.4453 187.331 64.6211 186.641 64.9727C185.951 65.3112 185.358 65.819 184.863 66.4961C184.368 67.1732 183.984 68 183.711 68.9766C183.438 69.9531 183.301 71.0794 183.301 72.3555V73.1758C183.301 74.1784 183.438 75.1224 183.711 76.0078C183.997 76.8802 184.408 77.6484 184.941 78.3125C185.488 78.9766 186.146 79.4974 186.914 79.875C187.695 80.2526 188.581 80.4414 189.57 80.4414C190.846 80.4414 191.927 80.181 192.812 79.6602C193.698 79.1393 194.473 78.4427 195.137 77.5703L197.324 79.3086C196.868 79.9987 196.289 80.6562 195.586 81.2812C194.883 81.9062 194.017 82.4141 192.988 82.8047C191.973 83.1953 190.768 83.3906 189.375 83.3906ZM205.43 66.3789V83H201.816V61.8672H205.234L205.43 66.3789ZM204.57 71.6328L203.066 71.5742C203.079 70.1289 203.294 68.7943 203.711 67.5703C204.128 66.3333 204.714 65.2591 205.469 64.3477C206.224 63.4362 207.122 62.7331 208.164 62.2383C209.219 61.7305 210.384 61.4766 211.66 61.4766C212.702 61.4766 213.639 61.6198 214.473 61.9062C215.306 62.1797 216.016 62.6224 216.602 63.2344C217.201 63.8464 217.656 64.6406 217.969 65.6172C218.281 66.5807 218.438 67.7591 218.438 69.1523V83H214.805V69.1133C214.805 68.0065 214.642 67.1211 214.316 66.457C213.991 65.7799 213.516 65.2917 212.891 64.9922C212.266 64.6797 211.497 64.5234 210.586 64.5234C209.688 64.5234 208.867 64.7122 208.125 65.0898C207.396 65.4674 206.764 65.9883 206.23 66.6523C205.71 67.3164 205.299 68.0781 205 68.9375C204.714 69.7839 204.57 70.6823 204.57 71.6328ZM232.773 61.8672V64.6406H221.348V61.8672H232.773ZM225.215 56.7305H228.828V77.7656C228.828 78.4818 228.939 79.0221 229.16 79.3867C229.382 79.7513 229.668 79.9922 230.02 80.1094C230.371 80.2266 230.749 80.2852 231.152 80.2852C231.452 80.2852 231.764 80.2591 232.09 80.207C232.428 80.1419 232.682 80.0898 232.852 80.0508L232.871 83C232.585 83.0911 232.207 83.1758 231.738 83.2539C231.283 83.3451 230.729 83.3906 230.078 83.3906C229.193 83.3906 228.379 83.2148 227.637 82.8633C226.895 82.5117 226.302 81.9258 225.859 81.1055C225.43 80.2721 225.215 79.1523 225.215 77.7461V56.7305Z" fill="black"/>
<g style="mix-blend-mode:color-burn">
<path d="M0 52H67V86H0V52Z" fill="black"/>
</g>
</g>
</svg>
