<svg width="775" height="128" viewBox="0 0 775 128" fill="none" xmlns="http://www.w3.org/2000/svg">
<g style="mix-blend-mode:darken">
<path d="M35.1875 119H16.1875L16.3125 109.188H35.1875C41.6875 109.188 47.1042 107.833 51.4375 105.125C55.7708 102.375 59.0208 98.5417 61.1875 93.625C63.3958 88.6667 64.5 82.875 64.5 76.25V70.6875C64.5 65.4792 63.875 60.8542 62.625 56.8125C61.375 52.7292 59.5417 49.2917 57.125 46.5C54.7083 43.6667 51.75 41.5208 48.25 40.0625C44.7917 38.6042 40.8125 37.875 36.3125 37.875H15.8125V28H36.3125C42.2708 28 47.7083 29 52.625 31C57.5417 32.9583 61.7708 35.8125 65.3125 39.5625C68.8958 43.2708 71.6458 47.7708 73.5625 53.0625C75.4792 58.3125 76.4375 64.2292 76.4375 70.8125V76.25C76.4375 82.8333 75.4792 88.7708 73.5625 94.0625C71.6458 99.3125 68.875 103.792 65.25 107.5C61.6667 111.208 57.3333 114.062 52.25 116.062C47.2083 118.021 41.5208 119 35.1875 119ZM22.625 28V119H10.5625V28H22.625ZM120.875 120.25C116.167 120.25 111.896 119.458 108.062 117.875C104.271 116.25 101 113.979 98.25 111.062C95.5417 108.146 93.4583 104.688 92 100.688C90.5417 96.6875 89.8125 92.3125 89.8125 87.5625V84.9375C89.8125 79.4375 90.625 74.5417 92.25 70.25C93.875 65.9167 96.0833 62.25 98.875 59.25C101.667 56.25 104.833 53.9792 108.375 52.4375C111.917 50.8958 115.583 50.125 119.375 50.125C124.208 50.125 128.375 50.9583 131.875 52.625C135.417 54.2917 138.312 56.625 140.562 59.625C142.812 62.5833 144.479 66.0833 145.562 70.125C146.646 74.125 147.188 78.5 147.188 83.25V88.4375H96.6875V79H135.625V78.125C135.458 75.125 134.833 72.2083 133.75 69.375C132.708 66.5417 131.042 64.2083 128.75 62.375C126.458 60.5417 123.333 59.625 119.375 59.625C116.75 59.625 114.333 60.1875 112.125 61.3125C109.917 62.3958 108.021 64.0208 106.438 66.1875C104.854 68.3542 103.625 71 102.75 74.125C101.875 77.25 101.438 80.8542 101.438 84.9375V87.5625C101.438 90.7708 101.875 93.7917 102.75 96.625C103.667 99.4167 104.979 101.875 106.688 104C108.438 106.125 110.542 107.792 113 109C115.5 110.208 118.333 110.812 121.5 110.812C125.583 110.812 129.042 109.979 131.875 108.312C134.708 106.646 137.188 104.417 139.312 101.625L146.312 107.188C144.854 109.396 143 111.5 140.75 113.5C138.5 115.5 135.729 117.125 132.438 118.375C129.188 119.625 125.333 120.25 120.875 120.25ZM180.375 108.562L198.875 51.375H210.688L186.375 119H178.625L180.375 108.562ZM164.938 51.375L184 108.875L185.312 119H177.562L153.062 51.375H164.938Z" fill="white"/>
<path d="M249.875 120.25C245.167 120.25 240.896 119.458 237.062 117.875C233.271 116.25 230 113.979 227.25 111.062C224.542 108.146 222.458 104.688 221 100.688C219.542 96.6875 218.812 92.3125 218.812 87.5625V84.9375C218.812 79.4375 219.625 74.5417 221.25 70.25C222.875 65.9167 225.083 62.25 227.875 59.25C230.667 56.25 233.833 53.9792 237.375 52.4375C240.917 50.8958 244.583 50.125 248.375 50.125C253.208 50.125 257.375 50.9583 260.875 52.625C264.417 54.2917 267.312 56.625 269.562 59.625C271.812 62.5833 273.479 66.0833 274.562 70.125C275.646 74.125 276.188 78.5 276.188 83.25V88.4375H225.688V79H264.625V78.125C264.458 75.125 263.833 72.2083 262.75 69.375C261.708 66.5417 260.042 64.2083 257.75 62.375C255.458 60.5417 252.333 59.625 248.375 59.625C245.75 59.625 243.333 60.1875 241.125 61.3125C238.917 62.3958 237.021 64.0208 235.438 66.1875C233.854 68.3542 232.625 71 231.75 74.125C230.875 77.25 230.438 80.8542 230.438 84.9375V87.5625C230.438 90.7708 230.875 93.7917 231.75 96.625C232.667 99.4167 233.979 101.875 235.688 104C237.438 106.125 239.542 107.792 242 109C244.5 110.208 247.333 110.812 250.5 110.812C254.583 110.812 258.042 109.979 260.875 108.312C263.708 106.646 266.188 104.417 268.312 101.625L275.312 107.188C273.854 109.396 272 111.5 269.75 113.5C267.5 115.5 264.729 117.125 261.438 118.375C258.188 119.625 254.333 120.25 249.875 120.25ZM302.25 23V119H290.625V23H302.25ZM317.75 85.9375V84.5C317.75 79.625 318.458 75.1042 319.875 70.9375C321.292 66.7292 323.333 63.0833 326 60C328.667 56.875 331.896 54.4583 335.688 52.75C339.479 51 343.729 50.125 348.438 50.125C353.188 50.125 357.458 51 361.25 52.75C365.083 54.4583 368.333 56.875 371 60C373.708 63.0833 375.771 66.7292 377.188 70.9375C378.604 75.1042 379.312 79.625 379.312 84.5V85.9375C379.312 90.8125 378.604 95.3333 377.188 99.5C375.771 103.667 373.708 107.312 371 110.438C368.333 113.521 365.104 115.938 361.312 117.688C357.562 119.396 353.312 120.25 348.562 120.25C343.812 120.25 339.542 119.396 335.75 117.688C331.958 115.938 328.708 113.521 326 110.438C323.333 107.312 321.292 103.667 319.875 99.5C318.458 95.3333 317.75 90.8125 317.75 85.9375ZM329.312 84.5V85.9375C329.312 89.3125 329.708 92.5 330.5 95.5C331.292 98.4583 332.479 101.083 334.062 103.375C335.688 105.667 337.708 107.479 340.125 108.812C342.542 110.104 345.354 110.75 348.562 110.75C351.729 110.75 354.5 110.104 356.875 108.812C359.292 107.479 361.292 105.667 362.875 103.375C364.458 101.083 365.646 98.4583 366.438 95.5C367.271 92.5 367.688 89.3125 367.688 85.9375V84.5C367.688 81.1667 367.271 78.0208 366.438 75.0625C365.646 72.0625 364.438 69.4167 362.812 67.125C361.229 64.7917 359.229 62.9583 356.812 61.625C354.438 60.2917 351.646 59.625 348.438 59.625C345.271 59.625 342.479 60.2917 340.062 61.625C337.688 62.9583 335.688 64.7917 334.062 67.125C332.479 69.4167 331.292 72.0625 330.5 75.0625C329.708 78.0208 329.312 81.1667 329.312 84.5ZM405.375 64.375V145H393.75V51.375H404.375L405.375 64.375ZM450.938 84.625V85.9375C450.938 90.8542 450.354 95.4167 449.188 99.625C448.021 103.792 446.312 107.417 444.062 110.5C441.854 113.583 439.125 115.979 435.875 117.688C432.625 119.396 428.896 120.25 424.688 120.25C420.396 120.25 416.604 119.542 413.312 118.125C410.021 116.708 407.229 114.646 404.938 111.938C402.646 109.229 400.812 105.979 399.438 102.188C398.104 98.3958 397.188 94.125 396.688 89.375V82.375C397.188 77.375 398.125 72.8958 399.5 68.9375C400.875 64.9792 402.688 61.6042 404.938 58.8125C407.229 55.9792 410 53.8333 413.25 52.375C416.5 50.875 420.25 50.125 424.5 50.125C428.75 50.125 432.521 50.9583 435.812 52.625C439.104 54.25 441.875 56.5833 444.125 59.625C446.375 62.6667 448.062 66.3125 449.188 70.5625C450.354 74.7708 450.938 79.4583 450.938 84.625ZM439.312 85.9375V84.625C439.312 81.25 438.958 78.0833 438.25 75.125C437.542 72.125 436.438 69.5 434.938 67.25C433.479 64.9583 431.604 63.1667 429.312 61.875C427.021 60.5417 424.292 59.875 421.125 59.875C418.208 59.875 415.667 60.375 413.5 61.375C411.375 62.375 409.562 63.7292 408.062 65.4375C406.562 67.1042 405.333 69.0208 404.375 71.1875C403.458 73.3125 402.771 75.5208 402.312 77.8125V94C403.146 96.9167 404.312 99.6667 405.812 102.25C407.312 104.792 409.312 106.854 411.812 108.438C414.312 109.979 417.458 110.75 421.25 110.75C424.375 110.75 427.062 110.104 429.312 108.812C431.604 107.479 433.479 105.667 434.938 103.375C436.438 101.083 437.542 98.4583 438.25 95.5C438.958 92.5 439.312 89.3125 439.312 85.9375ZM477.188 64.8125V119H465.562V51.375H476.562L477.188 64.8125ZM474.812 82.625L469.438 82.4375C469.479 77.8125 470.083 73.5417 471.25 69.625C472.417 65.6667 474.146 62.2292 476.438 59.3125C478.729 56.3958 481.583 54.1458 485 52.5625C488.417 50.9375 492.375 50.125 496.875 50.125C500.042 50.125 502.958 50.5833 505.625 51.5C508.292 52.375 510.604 53.7708 512.562 55.6875C514.521 57.6042 516.042 60.0625 517.125 63.0625C518.208 66.0625 518.75 69.6875 518.75 73.9375V119H507.188V74.5C507.188 70.9583 506.583 68.125 505.375 66C504.208 63.875 502.542 62.3333 500.375 61.375C498.208 60.375 495.667 59.875 492.75 59.875C489.333 59.875 486.479 60.4792 484.188 61.6875C481.896 62.8958 480.062 64.5625 478.688 66.6875C477.312 68.8125 476.312 71.25 475.688 74C475.104 76.7083 474.812 79.5833 474.812 82.625ZM518.625 76.25L510.875 78.625C510.917 74.9167 511.521 71.3542 512.688 67.9375C513.896 64.5208 515.625 61.4792 517.875 58.8125C520.167 56.1458 522.979 54.0417 526.312 52.5C529.646 50.9167 533.458 50.125 537.75 50.125C541.375 50.125 544.583 50.6042 547.375 51.5625C550.208 52.5208 552.583 54 554.5 56C556.458 57.9583 557.938 60.4792 558.938 63.5625C559.938 66.6458 560.438 70.3125 560.438 74.5625V119H548.812V74.4375C548.812 70.6458 548.208 67.7083 547 65.625C545.833 63.5 544.167 62.0208 542 61.1875C539.875 60.3125 537.333 59.875 534.375 59.875C531.833 59.875 529.583 60.3125 527.625 61.1875C525.667 62.0625 524.021 63.2708 522.688 64.8125C521.354 66.3125 520.333 68.0417 519.625 70C518.958 71.9583 518.625 74.0417 518.625 76.25ZM606 120.25C601.292 120.25 597.021 119.458 593.188 117.875C589.396 116.25 586.125 113.979 583.375 111.062C580.667 108.146 578.583 104.688 577.125 100.688C575.667 96.6875 574.938 92.3125 574.938 87.5625V84.9375C574.938 79.4375 575.75 74.5417 577.375 70.25C579 65.9167 581.208 62.25 584 59.25C586.792 56.25 589.958 53.9792 593.5 52.4375C597.042 50.8958 600.708 50.125 604.5 50.125C609.333 50.125 613.5 50.9583 617 52.625C620.542 54.2917 623.438 56.625 625.688 59.625C627.938 62.5833 629.604 66.0833 630.688 70.125C631.771 74.125 632.312 78.5 632.312 83.25V88.4375H581.812V79H620.75V78.125C620.583 75.125 619.958 72.2083 618.875 69.375C617.833 66.5417 616.167 64.2083 613.875 62.375C611.583 60.5417 608.458 59.625 604.5 59.625C601.875 59.625 599.458 60.1875 597.25 61.3125C595.042 62.3958 593.146 64.0208 591.562 66.1875C589.979 68.3542 588.75 71 587.875 74.125C587 77.25 586.562 80.8542 586.562 84.9375V87.5625C586.562 90.7708 587 93.7917 587.875 96.625C588.792 99.4167 590.104 101.875 591.812 104C593.562 106.125 595.667 107.792 598.125 109C600.625 110.208 603.458 110.812 606.625 110.812C610.708 110.812 614.167 109.979 617 108.312C619.833 106.646 622.312 104.417 624.438 101.625L631.438 107.188C629.979 109.396 628.125 111.5 625.875 113.5C623.625 115.5 620.854 117.125 617.562 118.375C614.312 119.625 610.458 120.25 606 120.25ZM657.375 65.8125V119H645.812V51.375H656.75L657.375 65.8125ZM654.625 82.625L649.812 82.4375C649.854 77.8125 650.542 73.5417 651.875 69.625C653.208 65.6667 655.083 62.2292 657.5 59.3125C659.917 56.3958 662.792 54.1458 666.125 52.5625C669.5 50.9375 673.229 50.125 677.312 50.125C680.646 50.125 683.646 50.5833 686.312 51.5C688.979 52.375 691.25 53.7917 693.125 55.75C695.042 57.7083 696.5 60.25 697.5 63.375C698.5 66.4583 699 70.2292 699 74.6875V119H687.375V74.5625C687.375 71.0208 686.854 68.1875 685.812 66.0625C684.771 63.8958 683.25 62.3333 681.25 61.375C679.25 60.375 676.792 59.875 673.875 59.875C671 59.875 668.375 60.4792 666 61.6875C663.667 62.8958 661.646 64.5625 659.938 66.6875C658.271 68.8125 656.958 71.25 656 74C655.083 76.7083 654.625 79.5833 654.625 82.625ZM744.875 51.375V60.25H708.312V51.375H744.875ZM720.688 34.9375H732.25V102.25C732.25 104.542 732.604 106.271 733.312 107.438C734.021 108.604 734.938 109.375 736.062 109.75C737.188 110.125 738.396 110.312 739.688 110.312C740.646 110.312 741.646 110.229 742.688 110.062C743.771 109.854 744.583 109.688 745.125 109.562L745.188 119C744.271 119.292 743.062 119.562 741.562 119.812C740.104 120.104 738.333 120.25 736.25 120.25C733.417 120.25 730.812 119.688 728.438 118.562C726.062 117.438 724.167 115.562 722.75 112.938C721.375 110.271 720.688 106.688 720.688 102.188V34.9375Z" fill="black"/>
<g style="mix-blend-mode:color-burn">
<path d="M8 26H212V124H8V26Z" fill="black"/>
</g>
</g>
</svg>
